<?xml version="1.0" standalone="no"?>
<!DOCTYPE svg PUBLIC "-//W3C//DTD SVG 20010904//EN"
 "http://www.w3.org/TR/2001/REC-SVG-20010904/DTD/svg10.dtd">
<svg version="1.0" xmlns="http://www.w3.org/2000/svg"
 width="1000.000000pt" height="1000.000000pt" viewBox="0 0 1000.000000 1000.000000"
 preserveAspectRatio="xMidYMid meet">
<metadata>
Created by potrace 1.14, written by Peter Selinger 2001-2017
</metadata>
<g transform="translate(0.000000,1000.000000) scale(0.100000,-0.100000)"
fill="#000000" stroke="none">
<path d="M6877 9243 c-1 -1 -60 -4 -132 -8 -71 -3 -148 -8 -170 -10 -22 -2
-75 -7 -118 -10 -43 -4 -88 -8 -100 -10 -12 -2 -49 -6 -82 -10 -108 -11 -425
-61 -505 -80 -14 -3 -38 -8 -55 -10 -16 -3 -37 -8 -45 -10 -8 -2 -28 -7 -45
-10 -34 -6 -310 -76 -395 -100 -30 -9 -62 -18 -70 -20 -37 -9 -249 -80 -288
-97 -50 -21 -127 -96 -283 -278 -209 -243 -409 -593 -539 -945 l-37 -99 -16
29 c-28 55 -76 212 -94 306 -14 74 -18 144 -17 330 l1 236 -186 -107 c-705
-405 -1194 -804 -1589 -1294 -232 -288 -395 -554 -552 -901 -82 -181 -159
-419 -216 -660 -11 -48 -45 -244 -50 -290 -3 -27 -7 -61 -10 -75 -22 -132 -22
-722 0 -835 2 -11 7 -54 10 -95 4 -41 11 -102 16 -135 5 -33 12 -78 15 -100
24 -167 92 -495 128 -615 l13 -44 48 129 c63 170 72 191 201 490 208 483 475
959 748 1335 79 109 262 342 307 390 8 9 56 60 105 114 108 119 334 341 465
458 89 79 371 309 434 353 15 11 49 36 75 56 62 48 228 163 386 267 382 250
862 511 1325 719 30 13 73 33 95 43 22 10 69 30 105 45 36 15 83 35 105 45
153 67 737 286 815 304 l25 6 -25 -12 c-54 -26 -191 -88 -195 -88 -24 0 -758
-367 -885 -442 -19 -11 -107 -62 -195 -113 -334 -193 -701 -436 -1017 -672
-101 -75 -197 -148 -213 -162 -17 -14 -48 -39 -69 -56 -21 -16 -44 -35 -50
-40 -6 -6 -38 -33 -71 -60 -33 -28 -62 -52 -65 -55 -3 -3 -23 -20 -45 -39
-105 -89 -246 -221 -410 -386 -198 -197 -313 -322 -425 -458 -14 -17 -42 -50
-63 -75 -20 -24 -65 -80 -99 -125 -34 -45 -65 -84 -68 -87 -12 -10 -179 -248
-239 -340 -33 -52 -64 -99 -69 -105 -7 -9 -24 -37 -75 -125 -55 -94 -189 -336
-191 -345 -1 -5 -16 -37 -33 -70 -116 -226 -283 -662 -339 -882 -2 -10 -26
-103 -53 -208 -27 -104 -52 -206 -55 -225 -7 -45 -13 -75 -26 -130 -5 -25 -12
-58 -15 -75 -9 -52 -24 -149 -30 -190 -4 -22 -8 -47 -10 -55 -4 -13 -14 -83
-54 -375 -6 -38 -13 -92 -16 -120 -3 -27 -7 -66 -9 -85 -8 -72 -17 -146 -21
-180 -3 -19 -7 -60 -10 -90 -3 -30 -8 -66 -10 -80 -2 -14 -7 -58 -10 -98 -4
-41 -8 -82 -10 -92 -2 -11 -6 -50 -10 -87 -3 -37 -8 -79 -10 -93 -2 -14 -6
-52 -10 -85 -10 -102 -16 -151 -30 -245 l-7 -45 52 55 c28 30 72 78 97 105 80
87 266 286 318 340 28 28 71 74 97 101 l47 49 -19 75 c-11 41 -22 100 -26 130
-3 30 -8 64 -10 75 -6 30 -5 224 1 280 16 151 46 286 87 402 l23 62 100 56
c55 31 114 64 130 74 33 19 637 354 750 416 873 475 1498 871 1958 1242 l79
63 -64 1 c-284 3 -729 25 -903 44 -22 2 -71 7 -110 10 -38 4 -83 8 -100 10
-16 2 -52 7 -80 10 -27 3 -64 8 -81 11 -17 3 -46 7 -65 9 -153 18 -271 43
-213 46 10 0 26 2 34 4 8 1 74 14 145 29 72 14 141 28 155 30 38 8 73 16 95
21 11 2 61 13 110 24 50 11 182 43 295 71 113 28 212 53 220 55 8 2 41 11 73
19 31 9 82 23 112 31 31 8 237 67 458 131 221 63 409 117 417 119 8 2 44 12
80 23 36 11 74 22 85 25 17 5 264 78 318 94 39 12 557 543 838 858 29 33 58
65 63 71 6 6 26 29 44 52 19 23 46 54 60 69 50 54 259 309 376 458 65 83 124
159 133 169 147 180 550 758 779 1116 198 310 612 1032 626 1089 4 18 -48 32
-342 95 -157 34 -474 90 -570 101 -25 3 -56 7 -70 10 -14 2 -54 7 -90 11 -36
3 -72 7 -81 9 -14 3 -78 9 -224 20 -173 14 -789 28 -798 18z"/>
<path d="M1336 2243 c-12 -50 -77 -246 -103 -308 -68 -166 -139 -277 -245
-387 -27 -27 -48 -50 -48 -52 0 -4 143 -261 204 -367 92 -161 212 -359 218
-359 3 0 8 33 10 73 4 83 -1 810 -6 907 -2 36 -7 166 -11 290 -3 124 -8 226
-9 228 -2 2 -7 -10 -10 -25z"/>
</g>
</svg>
